HIERARCHY
ROOT hip
{
	OFFSET 0.000000 0.000000 0.000000 
	CHANNELS 6 Xposition Yposition Zposition Xrotation Zrotation Yrotation
	JOINT abdomen
	{
		OFFSET 0.000000 3.402643 0.000000 
		CHANNELS 3 Xrotation Zrotation Yrotation
		JOINT chest
		{
			OFFSET 0.000000 8.438565 -0.680529 
			CHANNELS 3 Xrotation Zrotation Yrotation
			JOINT neck
			{
				OFFSET 0.000000 10.207942 -0.272212 
				CHANNELS 3 Xrotation Zrotation Yrotation
				JOINT head
				{
					OFFSET 0.000000 3.130431 0.000000 
					CHANNELS 3 Xrotation Zrotation Yrotation
					End Site
					{
						OFFSET 0.000000 3.130435 0.000000 
					}
				}
			}
			JOINT lCollar
			{
				OFFSET 3.470700 6.669187 -0.816635 
				CHANNELS 3 Yrotation Zrotation Xrotation
				JOINT lShldr
				{
					OFFSET 3.198488 0.000000 0.000000 
					CHANNELS 3 Zrotation Yrotation Xrotation
					JOINT lForeArm
					{
						OFFSET 10.139888 0.000000 0.000000 
						CHANNELS 3 Yrotation Zrotation Xrotation
						JOINT lHand
						{
							OFFSET 8.370511 0.000000 0.000000 
							CHANNELS 3 Zrotation Yrotation Xrotation
							End Site
							{
								OFFSET 4.083176 0.000000 0.000000 
							}
						}
					}
				}
			}
			JOINT rCollar
			{
				OFFSET -3.470700 6.669187 -0.816635 
				CHANNELS 3 Yrotation Zrotation Xrotation
				JOINT rShldr
				{
					OFFSET -3.198488 0.000000 0.000000 
					CHANNELS 3 Zrotation Yrotation Xrotation
					JOINT rForeArm
					{
						OFFSET -10.139888 0.000000 0.000000 
						CHANNELS 3 Yrotation Zrotation Xrotation
						JOINT rHand
						{
							OFFSET -8.370511 0.000000 0.000000 
							CHANNELS 3 Zrotation Yrotation Xrotation
							End Site
							{
								OFFSET -4.083176 0.000000 0.000000 
							}
						}
					}
				}
			}
		}
	}
	JOINT lThigh
	{
		OFFSET 5.308129 -1.633274 1.361059 
		CHANNELS 3 Xrotation Zrotation Yrotation
		JOINT lShin
		{
			OFFSET -2.041588 -20.007561 0.000000 
			CHANNELS 3 Xrotation Zrotation Yrotation
			JOINT lFoot
			{
				OFFSET 0.000000 -19.190928 -1.224953 
				CHANNELS 3 Xrotation Yrotation Zrotation
				End Site
				{
					OFFSET 0.000000 -2.449906 4.627600 
				}
			}
		}
	}
	JOINT rThigh
	{
		OFFSET -5.308129 -1.633274 1.361059 
		CHANNELS 3 Xrotation Zrotation Yrotation
		JOINT rShin
		{
			OFFSET 2.041588 -20.007561 0.000000 
			CHANNELS 3 Xrotation Zrotation Yrotation
			JOINT rFoot
			{
				OFFSET 0.000000 -19.190928 -1.224953 
				CHANNELS 3 Xrotation Yrotation Zrotation
				End Site
				{
					OFFSET 0.000000 -2.449906 4.627600 
				}
			}
		}
	}
}
MOTION
Frames: 20
Frame Time: 0.033333
-0.744708 52.494278 0.729391 -15.214844 -5.439453 -11.738281 19.813375 -11.593290 -4.381229 -4.755859 12.685547 9.990234 51.063168 8.107644 2.471410 -59.609375 -3.994140 -9.375002 2.000000 -2.000000 0.000000 -76.464844 10.263673 -2.420133 -54.623650 -1.667298 -2.138824 -66.590553 45.659138 -61.697346 -2.000000 2.000000 0.000000 85.029297 -4.062500 -14.551474 45.969097 1.554943 -2.057636 62.425640 -41.962139 -52.695362 16.039211 4.804304 9.231080 21.299223 -5.450377 -1.962872 -6.424372 3.256437 -3.247917 2.216306 -15.273419 -15.501966 3.132091 5.022915 0.292415 16.154736 -1.883478 3.233661 
-1.495312 52.411263 1.461858 -15.205078 -5.283204 -10.712891 19.423223 -11.091805 -4.184941 -4.628906 12.187499 10.156250 51.063168 8.107644 2.471410 -60.185543 -4.287109 -9.278074 2.000000 -2.000000 0.000000 -76.484375 9.492188 -2.001953 -54.095497 -1.675342 -2.109020 -65.892113 45.482922 -61.120869 -2.000000 2.000000 0.000000 84.677734 -4.013672 -14.658720 46.145176 1.536013 -2.068516 62.591240 -41.931957 -53.385647 16.646749 5.575730 8.150192 21.858131 -5.431482 -2.008547 -7.581950 3.601459 -2.693695 5.731045 -12.733401 -16.185104 -8.972035 4.800821 -0.580691 20.565275 -0.796701 2.373835 
-2.250681 52.288586 2.196838 -15.009764 -5.097656 -9.737195 19.243982 -10.510386 -4.146729 -4.482422 11.835938 10.214844 51.063168 8.107644 2.471410 -60.722656 -4.414062 -9.375751 2.000000 -2.000000 0.000000 -76.445313 8.935547 -1.718750 -53.745438 -1.874301 -2.165864 -65.828369 45.538147 -60.968296 -2.000000 2.000000 0.000000 84.296875 -3.623047 -15.381476 46.322502 1.713918 -1.764516 63.082535 -41.606205 -54.474026 17.262947 6.327610 7.410156 22.370369 -5.393502 -2.036690 -8.654826 3.365686 -2.520892 7.513550 -11.498117 -16.598450 -15.159485 4.927337 -1.121325 21.873516 -0.401948 1.701445 
-3.009718 52.146301 2.933750 -14.843750 -5.117187 -8.516496 18.859501 -10.178561 -4.028887 -4.521485 11.523438 10.234376 51.063168 8.107644 2.471410 -61.074219 -4.375000 -9.531252 2.000000 -2.000000 0.000000 -76.572266 9.375000 -1.503906 -53.920406 -1.735541 -2.134844 -66.422775 45.365631 -61.220428 -2.000000 2.000000 0.000000 83.886719 -3.291016 -15.390624 46.320957 1.536013 -2.068516 63.205360 -41.818531 -54.233780 17.625578 6.943445 5.951452 22.341055 -4.904098 -2.112220 -9.123750 3.503278 -2.316211 8.255740 -10.922330 -17.178009 -14.979558 4.755916 -1.031426 22.550703 -0.679909 1.876976 
-3.771313 52.030201 3.671992 -14.648437 -4.941406 -7.354358 18.728605 -9.842172 -4.283222 -4.365234 11.357422 10.207002 51.063168 8.107644 2.471410 -61.220699 -4.199218 -9.903060 2.000000 -2.000000 0.000000 -76.640625 10.410156 -1.345891 -54.264118 -1.367916 -2.205182 -66.753258 45.325378 -61.850334 -2.000000 2.000000 0.000000 83.593750 -2.500000 -15.869139 46.150169 1.535522 -1.892267 62.948261 -41.608681 -53.724571 18.612907 8.281199 5.389749 22.869083 -4.962375 -2.166802 -9.768296 2.623053 -2.864053 7.184954 -11.003379 -17.577122 -10.726099 4.769944 -0.719097 21.279020 -0.906753 2.412019 
-4.534389 51.860123 4.411012 -14.648437 -4.941406 -6.299670 18.422640 -9.667767 -4.581017 -4.365234 11.357422 10.207002 51.063168 8.107644 2.471410 -61.220707 -4.013671 -10.107422 2.000000 -2.000000 0.000000 -76.748047 10.878907 -1.660156 -54.097305 -1.855371 -2.176748 -66.714043 45.332973 -61.538406 -2.000000 2.000000 0.000000 83.330078 -2.080078 -16.474607 46.146049 1.643965 -1.739260 62.894951 -41.664524 -53.481331 18.880051 9.158114 4.133259 23.246195 -4.983109 -1.862445 -10.360903 2.483194 -3.086391 2.654047 -12.154441 -17.288944 -0.556308 4.885269 0.131113 16.825026 -1.746107 2.970403 
-5.297835 51.723358 5.150249 -14.492188 -4.794922 -5.126954 18.291599 -9.489987 -4.887977 -4.335937 11.669922 10.343773 51.063168 8.107644 2.471410 -61.201172 -3.837891 -10.488282 2.000000 -2.000000 0.000000 -77.128906 10.341797 -1.337891 -54.264118 -1.367916 -2.205182 -67.237450 45.284000 -61.960499 -2.000000 2.000000 0.000000 83.076172 -1.689453 -16.894531 46.146736 1.704169 -1.765084 62.918739 -41.616863 -53.393078 18.780691 9.947762 3.041546 23.766474 -4.847028 -2.045342 -10.197261 2.365460 -3.210024 1.296513 -12.231607 -17.539282 5.227972 5.185882 0.614917 13.821480 -2.029969 3.474160 
-6.060528 51.572052 5.889059 -14.296874 -4.609375 -4.131644 18.007999 -9.409373 -5.408689 -4.306641 11.826172 10.244142 51.063168 8.107644 2.471410 -60.996098 -3.681640 -10.703126 2.000000 -2.000000 0.000000 -77.529297 9.404296 -1.396484 -53.745190 -1.863984 -2.156688 -66.759872 45.266968 -61.759621 -2.000000 2.000000 0.000000 83.183594 -1.318359 -17.392805 46.150787 1.644469 -1.915248 62.761879 -42.430828 -52.971119 18.933044 11.063882 2.199561 24.477692 -4.827302 -2.100801 -9.996781 1.871575 -3.428984 0.272565 -12.323240 -17.774477 9.296421 5.113656 0.802794 12.018655 -2.612296 3.681549 
-6.821394 51.405357 6.626919 -14.296874 -4.609375 -3.252738 17.906155 -9.298128 -5.926683 -4.267577 12.148438 10.226664 51.063168 8.107644 2.471410 -60.820313 -3.525390 -10.927735 2.000000 -2.000000 0.000000 -77.763672 8.613282 -1.053223 -53.744343 -1.744722 -2.124530 -66.895721 44.912121 -61.903065 -2.000000 2.000000 0.000000 83.164063 -1.220703 -17.597654 46.150787 1.644469 -1.915248 63.044422 -42.475609 -53.379162 19.557381 12.371928 1.995039 25.362019 -4.797684 -2.363091 -9.934772 1.207588 -3.662686 -0.402278 -12.308365 -18.056822 12.821513 5.035418 1.117556 10.382227 -3.131350 3.833483 
-7.579344 51.246796 7.363265 -14.111328 -4.443359 -2.432397 17.628691 -9.212135 -6.434839 -4.228515 12.470704 10.207187 51.063168 8.107644 2.471410 -60.615238 -3.378906 -11.142578 2.000000 -2.000000 0.000000 -77.978516 7.978516 -1.024035 -53.568115 -1.694840 -2.107882 -66.890259 44.960796 -62.023109 -2.000000 2.000000 0.000000 83.261719 -1.572266 -17.773708 46.502899 1.635858 -1.935308 63.000210 -42.629875 -53.509811 19.022457 13.026303 1.419721 26.597460 -4.706297 -2.494404 -8.475932 0.940941 -2.935678 -0.723605 -12.087750 -18.194229 15.275595 5.023702 1.008462 8.747155 -3.447144 4.316177 
-8.333229 51.158989 8.097468 -13.955078 -4.287109 -1.778074 17.526146 -9.294054 -6.995490 -4.189455 12.783204 10.175781 51.063168 8.107644 2.471410 -60.595703 -3.037109 -11.386720 2.000000 -2.000000 0.000000 -78.007813 7.148438 -1.346439 -53.391788 -1.703452 -2.087823 -66.975494 44.799042 -62.387466 -2.000000 2.000000 0.000000 83.642578 -2.451172 -17.500416 47.025173 1.518788 -2.108632 63.326023 -42.530155 -53.845852 18.947763 14.262241 0.781734 28.005653 -4.638376 -2.595399 -6.436437 0.317891 -2.729301 -0.722876 -11.806041 -18.924116 17.233309 4.917457 1.643166 7.608941 -3.768558 4.200864 
-9.081983 51.031113 8.828989 -13.925781 -4.121094 -1.123047 17.402004 -9.455647 -7.399929 -4.150391 13.095703 10.332032 51.063168 8.107644 2.471410 -60.566410 -2.851562 -11.591799 2.000000 -2.000000 0.000000 -77.822266 6.347656 -1.416016 -53.217541 -1.882913 -2.145805 -66.547371 45.196270 -61.906567 -2.000000 2.000000 0.000000 84.062500 -2.763672 -17.314453 47.377014 1.509608 -2.118945 63.409729 -42.554317 -54.332573 16.852797 14.880342 0.118510 30.996326 -4.422913 -2.915071 -2.170149 0.171341 -1.319928 -0.322836 -11.377254 -19.463110 18.631580 4.876915 1.752325 6.829230 -4.147354 4.527903 
-9.824493 50.930866 9.557199 -13.945313 -3.935703 -0.801381 17.082474 -9.705883 -7.653280 -3.955077 13.232423 10.461221 51.063168 8.107644 2.471410 -60.556641 -2.695313 -11.972654 2.000000 -2.000000 0.000000 -77.441406 5.625000 -1.464844 -53.029064 -1.583053 -2.036174 -66.359055 45.166134 -62.258179 -2.000000 2.000000 0.000000 84.531250 -2.451172 -17.080076 47.556919 1.380107 -1.911113 63.598465 -42.486309 -55.305866 15.085907 15.651545 -0.483161 33.964504 -4.276648 -2.999968 4.062543 0.179089 -0.330892 0.047262 -10.728990 -19.794533 19.698833 4.841558 1.825531 5.185188 -4.283597 4.664147 
-10.559658 50.853180 10.281613 -13.750000 -3.769531 -0.518220 16.960196 -10.118072 -7.946624 -3.759765 13.369142 10.578430 51.063168 8.107644 2.471410 -60.908207 -2.656250 -11.953126 2.000000 -2.000000 0.000000 -77.412109 5.039062 -1.727658 -52.865700 -1.892095 -2.135491 -65.733635 45.444695 -61.774876 -2.000000 2.000000 0.000000 84.697266 -1.630859 -16.914343 47.552795 1.509608 -2.118945 63.818993 -42.292755 -56.174793 13.414497 16.333622 -0.917782 35.923389 -4.169904 -3.137720 10.955673 0.435997 0.794428 -0.128999 -10.598301 -19.956142 21.979395 4.751574 1.851296 4.915761 -4.513649 4.531202 
-11.286388 50.790894 11.001493 -13.749999 -3.427734 -0.420506 16.635681 -10.627810 -8.092727 -3.554686 13.505860 10.685874 51.063168 8.107644 2.471410 -61.279297 -2.802734 -11.904775 2.000000 -2.000000 0.000000 -77.216797 4.628906 -1.943360 -52.689365 -1.900707 -2.115432 -65.552475 45.268066 -61.723553 -2.000000 2.000000 0.000000 85.058594 -0.908203 -16.513672 47.541435 1.320397 -2.061501 63.608261 -42.388920 -56.445259 12.826959 16.819771 -1.261828 35.932991 -4.273335 -3.160175 17.354443 0.824453 2.131287 -0.099578 -10.178896 -19.946228 23.402769 4.692572 2.112694 4.119665 -4.667618 4.748259 
-12.003604 50.657619 11.716393 -13.749999 -3.095703 -0.498574 16.497681 -11.052370 -8.382486 -3.525392 13.652344 10.771485 51.063168 8.107644 2.471410 -61.826168 -3.085938 -11.807165 2.000000 -2.000000 0.000000 -77.226563 4.648437 -2.109375 -52.865700 -1.892095 -2.135491 -65.487999 44.902027 -62.133766 -2.000000 2.000000 0.000000 85.273438 -0.312500 -16.816404 47.200951 1.518788 -2.108632 63.625187 -42.027534 -55.817520 14.500838 17.263302 -1.165446 34.171806 -4.354913 -3.059242 18.937859 1.574760 5.411495 0.222160 -9.923054 -20.320656 24.459669 4.653910 2.055260 3.938158 -4.680129 4.719350 
-12.710061 50.792198 12.425743 -13.916016 -2.910156 -0.527840 16.352894 -11.565263 -8.520072 -3.349608 13.632813 10.998395 51.063168 8.107644 2.471410 -62.216793 -3.408203 -11.543550 2.000000 -2.000000 0.000000 -77.441406 4.804687 -2.509766 -52.865700 -1.892095 -2.135491 -65.092842 44.664581 -62.216877 -2.000000 2.000000 0.000000 85.498047 0.195313 -17.099585 47.025173 1.518788 -2.108632 63.370182 -41.602325 -54.810520 17.134027 17.387709 -0.809316 30.998352 -4.520565 -2.804269 19.133144 2.525849 8.505755 0.575742 -9.559613 -20.163912 25.515907 4.605331 2.286934 3.730559 -4.659788 4.700675 
-13.404827 50.950642 13.128957 -13.916016 -2.568359 -0.801219 16.361057 -11.903720 -8.621796 -3.320313 13.789062 11.074220 51.063168 8.107644 2.471410 -62.412109 -3.554688 -11.318358 2.000000 -2.000000 0.000000 -77.626953 4.843750 -2.714019 -52.865700 -1.892095 -2.135491 -65.004097 44.248264 -62.223980 -2.000000 2.000000 0.000000 85.761719 0.615234 -17.704975 46.850662 1.696129 -1.794890 62.877457 -41.252335 -53.820744 18.695723 17.757923 -1.050604 28.356707 -4.540546 -2.601667 22.698212 3.443851 10.790684 0.915431 -9.369444 -20.156929 26.219894 4.576257 2.202043 3.721457 -4.659032 4.545715 
-14.086750 51.112331 13.825345 -13.916016 -2.236328 -1.035156 16.564301 -12.235335 -8.741987 -3.710936 13.681641 10.910514 51.063168 8.107644 2.471410 -62.421879 -3.720703 -11.103515 2.000000 -2.000000 0.000000 -77.656250 5.000000 -2.880860 -53.041477 -1.892095 -2.135491 -65.648392 44.401588 -61.890114 -2.000000 2.000000 0.000000 85.888672 0.830078 -17.353373 46.497017 1.526832 -2.078829 62.648094 -41.347565 -52.789757 20.982834 17.721235 -0.758322 25.180910 -4.686670 -2.373650 24.407955 4.209262 13.481718 1.627170 -8.976593 -20.365498 26.578449 4.566038 2.229260 3.613662 -4.444583 4.616649 
-14.769021 51.260918 14.494190 -13.906251 -1.894531 -1.318359 17.287720 -12.379097 -8.860534 -4.296874 13.437501 10.803050 51.063168 8.107644 2.471410 -61.699223 -3.632812 -11.015626 2.000000 -2.000000 0.000000 -77.861328 5.185547 -3.281250 -53.041477 -1.892095 -2.135491 -66.285378 44.623238 -61.813328 -2.000000 2.000000 0.000000 85.927734 0.644531 -16.786999 46.662239 1.339326 -2.050621 62.481388 -41.289555 -52.945965 23.999649 18.033398 -0.268659 21.302605 -4.930125 -2.069464 26.364225 4.854692 15.792584 2.155019 -8.656396 -20.375761 26.749285 4.555402 2.221814 3.624945 -4.281290 4.311250 
